<svg viewBox="0 0 19.9961 20" xmlns="http://www.w3.org/2000/svg" xmlns:xlink="http://www.w3.org/1999/xlink" width="19.996094" height="20.000000" fill="none" customFrame="#000000">
	<path id="Vector" d="M19.4804 3.45374C19.7266 4.0868 19.8984 4.81738 19.9453 5.88005C19.9921 6.9467 19.9961 7.28658 19.9961 10.002C19.9961 12.7173 19.9843 13.0572 19.9375 14.1239C19.8906 15.1865 19.7186 15.9133 19.4726 16.5502C18.953 17.8941 17.8903 18.9568 16.5462 19.4765C15.9133 19.7226 15.1827 19.8945 14.12 19.9413C13.0534 19.9883 12.7135 19.9999 9.99812 19.9999C7.28275 19.9999 6.94272 19.9883 5.87623 19.9413C4.8134 19.8945 4.08679 19.7226 3.44992 19.4765C2.78573 19.2265 2.18014 18.8318 1.68001 18.3239C1.1721 17.8238 0.777586 17.2221 0.52363 16.5502C0.277459 15.9171 0.105459 15.1865 0.0586051 14.1239C0.0117515 13.0572 0 12.7173 0 10.002C0 7.28658 0.0117515 6.9467 0.0625731 5.87609C0.109427 4.81341 0.281274 4.0868 0.527446 3.44992C0.777586 2.78573 1.1721 2.18014 1.68001 1.68002C2.18014 1.16814 2.78176 0.777435 3.45389 0.523479C4.08679 0.277459 4.81737 0.105459 5.88005 0.0586052C6.94669 0.0117516 7.28657 0 10.0019 0C12.7173 0 13.0572 0.0117516 14.1278 0.0625732C15.1905 0.109427 15.9172 0.281274 16.554 0.527447C17.2182 0.777435 17.8237 1.1721 18.3239 1.68002C18.8357 2.18014 19.2264 2.78176 19.4804 3.45374ZM17.8004 15.9015C17.9371 15.5499 18.1012 15.0225 18.1442 14.0457C18.1911 12.9908 18.2028 12.6783 18.2028 10.0097C18.2028 7.34122 18.1911 7.02484 18.1442 5.96995C18.1012 4.99701 17.9371 4.46575 17.8004 4.11412C17.6401 3.68038 17.3862 3.28967 17.0541 2.96536C16.7337 2.63327 16.3391 2.37931 15.9055 2.21921C15.5539 2.08247 15.0264 1.9184 14.0497 1.87537C12.9986 1.82851 12.6822 1.81676 10.0097 1.81676C7.34136 1.81676 7.02483 1.82851 5.96994 1.87537C4.99715 1.9184 4.46574 2.08247 4.11411 2.21921C3.68037 2.37931 3.28967 2.63327 2.96551 2.96536C2.62945 3.28586 2.37549 3.68038 2.21524 4.11412C2.0785 4.46575 1.91443 4.99319 1.87155 5.96995C1.82454 7.02087 1.81294 7.34122 1.81294 10.0097C1.81294 12.6783 1.82454 12.9948 1.87155 14.0497C1.91443 15.0225 2.0785 15.5539 2.21524 15.9055C2.37549 16.3391 2.62945 16.7298 2.96154 17.0541C3.28189 17.3862 3.67655 17.6402 4.11014 17.8004C4.46177 17.9372 4.98922 18.1012 5.96597 18.1441C7.01705 18.1911 7.33739 18.2027 10.0059 18.2027C12.6744 18.2027 12.9908 18.1911 14.0457 18.1441C15.0186 18.1012 15.5499 17.9372 15.9015 17.8004C16.7728 17.4643 17.4643 16.7728 17.8004 15.9015ZM15.3428 5.86053C16.0053 5.86053 16.5424 5.32346 16.5424 4.6611C16.5424 3.99858 16.0053 3.46167 15.3428 3.46167C14.6805 3.46167 14.1434 3.99858 14.1434 4.6611C14.1434 5.32346 14.6805 5.86053 15.3428 5.86053ZM10.0019 4.86423C7.16554 4.86423 4.86421 7.1654 4.86421 10.002C4.86421 12.8385 7.16554 15.1397 10.0019 15.1397C12.8385 15.1397 15.1397 12.8385 15.1397 10.002C15.1397 7.1654 12.8385 4.86423 10.0019 4.86423ZM10.0019 13.3347C8.16182 13.3347 6.66922 11.8422 6.66922 10.002C6.66922 8.16169 8.16182 6.66924 10.0019 6.66924C11.8422 6.66924 13.3346 8.16169 13.3346 10.002C13.3346 11.8422 11.8422 13.3347 10.0019 13.3347Z" fill="rgb(120,122,128)" fill-rule="evenodd" />
</svg>
