<svg viewBox="0 0 20 20" xmlns="http://www.w3.org/2000/svg" xmlns:xlink="http://www.w3.org/1999/xlink" width="20.000000" height="20.000000" fill="none" customFrame="#000000">
	<path id="Vector" d="M0 2.40167C0 1.07583 1.07583 0 2.40167 0C3.72667 0 4.8025 1.07583 4.80333 2.40167C4.80333 3.7275 3.7275 4.82583 2.40167 4.82583C1.07583 4.82583 0 3.7275 0 2.40167ZM20 19.9992L19.995 20L15.8575 20L15.8575 13.4992C15.8575 11.95 15.8258 9.96334 13.7017 9.96334C11.5458 9.96334 11.2158 11.6467 11.2158 13.3875L11.2158 19.9992L7.07416 19.9992L7.07416 6.64667L11.0517 6.64667L11.0517 8.4675L11.11 8.4675C11.6625 7.41833 13.0158 6.31167 15.0325 6.31167C19.2275 6.31167 20 9.07583 20 12.6642L20 19.9992ZM0.329995 6.6475L4.47666 6.6475L4.47666 20L0.329995 20L0.329995 6.6475Z" fill="rgb(120,122,128)" fill-rule="evenodd" />
</svg>
