<svg viewBox="0 0 95.999 96" xmlns="http://www.w3.org/2000/svg" xmlns:xlink="http://www.w3.org/1999/xlink" width="95.999023" height="96.000000" fill="none" customFrame="#000000">
	<g id="shapes" opacity="0.600000024">
		<path id="Vector" d="M31.6988 19.7779L31.6988 31.6988L0 31.6988L0 0L11.8306 0L11.8306 19.7779L31.6988 19.7779Z" fill="rgb(255,255,255)" fill-rule="nonzero" transform="matrix(-1,1.20388e-07,-6.34845e-08,-1,95.999,31.6992)" />
		<path id="Vector" d="M31.6988 19.7779L31.6988 31.6085L0 31.6085L0 0L11.9209 0L11.9209 19.7779L31.6988 19.7779Z" fill="rgb(255,255,255)" fill-rule="nonzero" transform="matrix(-1,1.20388e-07,-6.34844e-08,-1,74.5967,53.1035)" />
		<path id="Vector" d="M31.6085 19.7779L31.6085 31.6988L0 31.6988L0 0L11.8306 0L11.8306 19.7779L31.6085 19.7779Z" fill="rgb(255,255,255)" fill-rule="nonzero" transform="matrix(-1,1.20387e-07,-6.34848e-08,-1,53.1025,74.5957)" />
		<path id="Vector" d="M31.6988 19.7779L31.6988 31.6988L0 31.6988L0 0L11.9209 0L11.9209 19.7779L31.6988 19.7779Z" fill="rgb(255,255,255)" fill-rule="nonzero" transform="matrix(-1,1.20388e-07,-6.34844e-08,-1,31.6992,96)" />
	</g>
</svg>
